<svg xmlns="http://www.w3.org/2000/svg" width="22" height="22" fill="none" viewBox="0 0 22 22"><g clip-path="url(#a)"><rect width="22" height="22" fill="#111" rx="11"/><path fill="url(#b)" d="M16.482 8.402a2.89 2.89 0 0 1-2.889-2.89h-2.064v8.084a1.755 1.755 0 1 1-1.26-1.686V9.903a3.726 3.726 0 1 0 3.228 3.693l.06-4.086a4.93 4.93 0 0 0 2.925.956z"/><path fill="url(#c)" d="M15.937 7.84a2.89 2.89 0 0 1-2.89-2.89h-2.064v8.084a1.755 1.755 0 1 1-1.26-1.686V9.34a3.726 3.726 0 1 0 3.228 3.693l.06-4.086a4.93 4.93 0 0 0 2.926.956z"/><path fill="url(#d)" d="M15.937 8.35a2.9 2.9 0 0 1-1.781-1.125 2.9 2.9 0 0 1-1.053-1.713h-1.574v8.084a1.758 1.758 0 0 1-3.26.91 1.758 1.758 0 0 1 1.455-3.158V9.87a3.725 3.725 0 0 0-2.885 6.023 3.725 3.725 0 0 0 6.113-2.86l.06-4.086a4.93 4.93 0 0 0 2.925.956z"/></g><defs><linearGradient id="b" x1="6.87274" x2="15.4596" y1="15.9658" y2="7.37897" gradientUnits="userSpaceOnUse"><stop stop-color="#B5053C"/><stop offset="0.233" stop-color="#C90441"/><stop offset="0.737" stop-color="#F0014B"/><stop offset="1" stop-color="#FF004F"/></linearGradient><linearGradient id="c" x1="6.1994" x2="15.2445" y1="15.5313" y2="6.48615" gradientUnits="userSpaceOnUse"><stop stop-color="#00B2C9"/><stop offset="0.283" stop-color="#00C8D4"/><stop offset="0.741" stop-color="#00E6E4"/><stop offset="1" stop-color="#00F1EA"/></linearGradient><linearGradient id="d" x1="1.1321" x2="21.1536" y1="21.1529" y2="1.13142" gradientUnits="userSpaceOnUse"><stop stop-color="#DDE3E4"/><stop offset="1" stop-color="#FCF7F7"/></linearGradient><clipPath id="a"><path fill="#fff" d="M0 0h22v22H0z"/></clipPath></defs></svg>